<?xml version="1.0" encoding="UTF-8"?>
<svg width="33px" height="33px" viewBox="0 0 33 33" version="1.1" xmlns="http://www.w3.org/2000/svg" xmlns:xlink="http://www.w3.org/1999/xlink">
    <title>Fill 3</title>
    <g id="Freedom-of-Espresso" stroke="none" stroke-width="1" fill="none" fill-rule="evenodd">
        <g id="Desktop-Copy-3" transform="translate(-811.000000, -5167.000000)" fill="#FFFFFF">
            <g id="Footer" transform="translate(0.000000, 5026.000000)">
                <g id="Group-2-Copy" transform="translate(811.000000, 141.000000)">
                    <path d="M31.6253438,0 L1.3756875,0 C0.61565625,0 0,0.61565625 0,1.37465625 L0,31.6253438 C0,32.3843438 0.61565625,33 1.3756875,33 L17.53125,33 L17.53125,20.625 L13.40625,20.625 L13.40625,15.46875 L17.53125,15.46875 L17.53125,11.34375 C17.53125,7.08159375 20.2300313,4.98403125 24.03225,4.98403125 C25.8534375,4.98403125 27.418875,5.12015625 27.8746875,5.17996875 L27.8746875,9.63496875 L25.2377812,9.636 C23.170125,9.636 22.6875,10.6187813 22.6875,12.0604688 L22.6875,15.46875 L27.84375,15.46875 L26.8125,20.625 L22.6875,20.625 L22.77,33 L31.6253438,33 C32.3843437,33 33,32.3843438 33,31.6253438 L33,1.37465625 C33,0.61565625 32.3843437,0 31.6253438,0" id="Fill-3"></path>
                </g>
            </g>
        </g>
    </g>
</svg>