<?xml version="1.0" encoding="UTF-8"?>
<svg width="33px" height="33px" viewBox="0 0 33 33" version="1.1" xmlns="http://www.w3.org/2000/svg" xmlns:xlink="http://www.w3.org/1999/xlink">
    <title>Fill 23</title>
    <g id="Freedom-of-Espresso" stroke="none" stroke-width="1" fill="none" fill-rule="evenodd">
        <g id="Desktop-Copy-3" transform="translate(-980.000000, -5167.000000)" fill="#FFFFFF">
            <g id="Footer" transform="translate(0.000000, 5026.000000)">
                <g id="Group-2-Copy" transform="translate(811.000000, 141.000000)">
                    <path d="M197.875,29.90625 L173.125,29.90625 C172.55575,29.90625 172.09375,29.44425 172.09375,28.875 L172.09375,13.40625 L176.21875,13.40625 C175.681469,14.1796875 175.499969,15.6224063 175.499969,16.5381563 C175.499969,22.0605 180.003438,26.5536563 185.538156,26.5536563 C191.073906,26.5536563 195.577375,22.0605 195.577375,16.5381563 C195.577375,15.6224063 195.447438,14.2013437 194.78125,13.40625 L198.90625,13.40625 L198.90625,28.875 C198.90625,29.44425 198.44425,29.90625 197.875,29.90625 M185.538156,10.2073125 C189.043375,10.2073125 191.884469,13.0422188 191.884469,16.5381563 C191.884469,20.035125 189.043375,22.8700313 185.538156,22.8700313 C182.033969,22.8700313 179.192875,20.035125 179.192875,16.5381563 C179.192875,13.0422188 182.033969,10.2073125 185.538156,10.2073125 M193.75,4.125 L196.84375,4.125 C197.413,4.125 197.875,4.587 197.875,5.15625 L197.875,8.25 C197.875,8.81925 197.413,9.28125 196.84375,9.28125 L193.75,9.28125 C193.18075,9.28125 192.71875,8.81925 192.71875,8.25 L192.71875,5.15625 C192.71875,4.587 193.18075,4.125 193.75,4.125 M198.077125,0 L172.922875,0 C170.756219,0 169,1.75209375 169,3.91359375 L169,29.0864063 C169,31.2479063 170.756219,33 172.922875,33 L198.077125,33 C200.243781,33 202,31.2479063 202,29.0864063 L202,3.91359375 C202,1.75209375 200.243781,0 198.077125,0" id="Fill-23"></path>
                </g>
            </g>
        </g>
    </g>
</svg>