<?xml version="1.0" encoding="UTF-8"?>
<svg width="33px" height="26px" viewBox="0 0 33 26" version="1.1" xmlns="http://www.w3.org/2000/svg" xmlns:xlink="http://www.w3.org/1999/xlink">
    <title>Fill 1</title>
    <g id="Freedom-of-Espresso" stroke="none" stroke-width="1" fill="none" fill-rule="evenodd">
        <g id="Desktop-Copy-3" transform="translate(-867.000000, -5169.000000)" fill="#FFFFFF">
            <g id="Footer" transform="translate(0.000000, 5026.000000)">
                <g id="Group-2-Copy" transform="translate(811.000000, 141.000000)">
                    <path d="M89,5.07740819 C87.7862187,5.59930783 86.4806563,5.95223995 85.1111562,6.11120938 C86.5095312,5.2983657 87.5830625,4.01261296 88.088375,2.47990771 C86.78075,3.23176312 85.3308125,3.77765814 83.7890938,4.07260142 C82.5536562,2.79684676 80.7943438,2 78.8473437,2 C75.1080312,2 72.0771875,4.93843492 72.0771875,8.56373774 C72.0771875,9.07763892 72.137,9.57854259 72.2525,10.0594501 C66.6249687,9.78550279 61.6368125,7.17200538 58.297625,3.20076908 C57.7149687,4.17058258 57.3808437,5.2983657 57.3808437,6.5011344 C57.3808437,8.7776966 58.5760625,10.7873101 60.3920938,11.9640838 C59.2824687,11.9300904 58.2388437,11.6351471 57.3261875,11.1432417 C57.3251562,11.1712363 57.3251562,11.1982311 57.3251562,11.2262257 C57.3251562,14.4066141 59.658875,17.059104 62.75675,17.6619881 C62.1885313,17.8119592 61.5904062,17.8919439 60.9726875,17.8919439 C60.5364687,17.8919439 60.112625,17.8509517 59.6990938,17.7749664 C60.5601875,20.3824649 63.0609687,22.2801 66.02375,22.3330898 C63.7065312,24.0937512 60.7870625,25.1425495 57.6149375,25.1425495 C57.068375,25.1425495 56.5300625,25.1115555 56,25.051567 C58.9957813,26.913209 62.554625,28 66.3785,28 C78.831875,28 85.6412187,17.9979235 85.6412187,9.32459142 C85.6412187,9.03964622 85.6350312,8.75670063 85.621625,8.47475485 C86.9447188,7.54993271 88.0925,6.39415497 89,5.07740819" id="Fill-1"></path>
                </g>
            </g>
        </g>
    </g>
</svg>