<?xml version="1.0" encoding="UTF-8"?>
<svg width="26px" height="18px" viewBox="0 0 26 18" version="1.1" xmlns="http://www.w3.org/2000/svg" xmlns:xlink="http://www.w3.org/1999/xlink">
    <title>Fill 25 Copy</title>
    <g id="Freedom-of-Espresso" stroke="none" stroke-width="1" fill="none" fill-rule="evenodd">
        <path d="M10.3155,12.3193673 L10.3146875,5.12880437 L17.3395625,8.73648198 L10.3155,12.3193673 Z M25.74,3.88279202 C25.74,3.88279202 25.4856875,2.11934065 24.7065,1.34278225 C23.7176875,0.32309948 22.6094375,0.318300973 22.101625,0.259119385 C18.46325,0 13.0056875,0 13.0056875,0 L12.9943125,0 C12.9943125,0 7.53675,0 3.898375,0.259119385 C3.38975,0.318300973 2.2823125,0.32309948 1.2926875,1.34278225 C0.5135,2.11934065 0.26,3.88279202 0.26,3.88279202 C0.26,3.88279202 0,5.9541476 0,8.02470343 L0,9.96649931 C0,12.0378549 0.26,14.1084107 0.26,14.1084107 C0.26,14.1084107 0.5135,15.8718621 1.2926875,16.6484205 C2.2823125,17.6681033 3.5815,17.6361132 4.16,17.7424801 C6.24,17.9392189 13,18 13,18 C13,18 18.46325,17.9920025 22.101625,17.7328831 C22.6094375,17.6729018 23.7176875,17.6681033 24.7065,16.6484205 C25.4856875,15.8718621 25.74,14.1084107 25.74,14.1084107 C25.74,14.1084107 26,12.0378549 26,9.96649931 L26,8.02470343 C26,5.9541476 25.74,3.88279202 25.74,3.88279202 L25.74,3.88279202 Z" id="Fill-25-Copy" fill="#000000"></path>
    </g>
</svg>