<?xml version="1.0" encoding="UTF-8"?>
<svg width="26px" height="18px" viewBox="0 0 26 18" version="1.1" xmlns="http://www.w3.org/2000/svg" xmlns:xlink="http://www.w3.org/1999/xlink">
    <title>Fill 25</title>
    <g id="Freedom-of-Espresso" stroke="none" stroke-width="1" fill="none" fill-rule="evenodd">
        <g id="Tablet-Copy-3" transform="translate(-687.000000, -4720.000000)" fill="#FFFFFF">
            <g id="Footer" transform="translate(-2.000000, 4612.000000)">
                <g id="Group-2-Copy-2" transform="translate(599.000000, 105.000000)">
                    <path d="M100.3155,15.3193673 L100.314687,8.12880437 L107.339562,11.736482 L100.3155,15.3193673 Z M115.74,6.88279202 C115.74,6.88279202 115.485687,5.11934065 114.7065,4.34278225 C113.717687,3.32309948 112.609437,3.31830097 112.101625,3.25911939 C108.46325,3 103.005687,3 103.005687,3 L102.994312,3 C102.994312,3 97.53675,3 93.898375,3.25911939 C93.38975,3.31830097 92.2823125,3.32309948 91.2926875,4.34278225 C90.5135,5.11934065 90.26,6.88279202 90.26,6.88279202 C90.26,6.88279202 90,8.9541476 90,11.0247034 L90,12.9664993 C90,15.0378549 90.26,17.1084107 90.26,17.1084107 C90.26,17.1084107 90.5135,18.8718621 91.2926875,19.6484205 C92.2823125,20.6681033 93.5815,20.6361132 94.16,20.7424801 C96.24,20.9392189 103,21 103,21 C103,21 108.46325,20.9920025 112.101625,20.7328831 C112.609437,20.6729018 113.717687,20.6681033 114.7065,19.6484205 C115.485687,18.8718621 115.74,17.1084107 115.74,17.1084107 C115.74,17.1084107 116,15.0378549 116,12.9664993 L116,11.0247034 C116,8.9541476 115.74,6.88279202 115.74,6.88279202 L115.74,6.88279202 Z" id="Fill-25"></path>
                </g>
            </g>
        </g>
    </g>
</svg>